<?xml version="1.0" encoding="utf-8"?>
<!-- Generator: Adobe Illustrator 24.2.0, SVG Export Plug-In . SVG Version: 6.00 Build 0)  -->
<svg version="1.1" id="Camada_1" xmlns="http://www.w3.org/2000/svg" xmlns:xlink="http://www.w3.org/1999/xlink" x="0px" y="0px"
	 viewBox="0 0 20 20" style="enable-background:new 0 0 20 20;" xml:space="preserve">
<style type="text/css">
	.st0{fill:none;stroke:#F2F2F2;stroke-linecap:round;stroke-linejoin:round;}
</style>
<g>
	<path d="M19.5,4.2C19.5,4.2,19.4,4.1,19.5,4.2c0-0.1-0.1-0.1-0.1-0.1l-3-3.8c-0.1-0.1-0.2-0.2-0.4-0.2H4c-0.2,0-0.3,0.1-0.4,0.2
		L0.6,4c0,0,0,0,0,0.1c0,0,0,0,0,0.1c0,0.1,0,0.1,0,0.2v13.2c0,0.6,0.3,1.2,0.7,1.7c0.5,0.4,1.1,0.7,1.8,0.7h14
		c0.7,0,1.3-0.2,1.8-0.7c0.5-0.4,0.7-1.1,0.7-1.7V4.4C19.5,4.3,19.5,4.2,19.5,4.2z M4.2,1.1h11.5L18,3.9H2L4.2,1.1z M18.1,18.5
		c-0.3,0.3-0.7,0.4-1.1,0.4H3c-0.4,0-0.8-0.2-1.1-0.4c-0.3-0.3-0.4-0.6-0.4-1V4.9h17v12.7C18.5,17.9,18.3,18.2,18.1,18.5z"/>
	<path d="M14,7.6c-0.3,0-0.5,0.2-0.5,0.5c0,0.9-0.4,1.7-1,2.3c-1.3,1.2-3.7,1.2-5,0c-0.7-0.6-1-1.4-1-2.3c0-0.3-0.2-0.5-0.5-0.5
		S5.5,7.8,5.5,8.1c0,1.1,0.5,2.2,1.3,3c0.8,0.8,2,1.2,3.2,1.2c1.2,0,2.3-0.4,3.2-1.2c0.8-0.8,1.3-1.9,1.3-3
		C14.5,7.8,14.3,7.6,14,7.6z"/>
</g>
<path class="st0" d="M223,215l-3,3.8V232c0,0.5,0.2,1,0.6,1.3c0.4,0.4,0.9,0.6,1.4,0.6h14c0.5,0,1-0.2,1.4-0.6
	c0.4-0.4,0.6-0.8,0.6-1.3v-13.2l-3-3.8H223z"/>
<path class="st0" d="M220,218.8h18"/>
<path class="st0" d="M233,222.6c0,1-0.4,2-1.2,2.7c-0.8,0.7-1.8,1.1-2.8,1.1c-1.1,0-2.1-0.4-2.8-1.1c-0.8-0.7-1.2-1.7-1.2-2.7"/>
</svg>
