<svg width="23" height="17" viewBox="0 0 23 17" fill="none" xmlns="http://www.w3.org/2000/svg">
<path d="M2.49823 0C1.1405 0 0 1.1424 0 2.5024V4.2704V6.6096V14.4704C0 15.8576 1.1405 16.9728 2.49823 16.9728H20.4746C21.8595 16.9728 22.9728 15.8304 22.9728 14.4704V6.6368V4.2704V2.5024C23 1.1424 21.8595 0 20.5018 0H2.49823ZM2.49823 1.4416H20.4746C21.072 1.4416 21.5336 1.904 21.5336 2.5024V3.5632H1.4392V2.5024C1.4392 1.904 1.90083 1.4416 2.49823 1.4416ZM1.4392 5.0048H21.5608V5.9024H1.4392V5.0048ZM1.4392 7.344H21.5608V14.4976C21.5608 15.096 21.0992 15.5584 20.5018 15.5584H2.49823C1.90083 15.5584 1.4392 15.096 1.4392 14.4976V7.344ZM14.7993 9.1664C13.3872 9.1664 12.2196 10.336 12.2196 11.7776C12.2196 13.192 13.3872 14.3616 14.7993 14.3616C15.2881 14.3616 15.7225 14.2256 16.1299 13.9808C16.51 14.2256 16.9717 14.3616 17.4604 14.3616C18.8725 14.3616 20.0401 13.192 20.0401 11.7776C20.0401 10.3632 18.8996 9.1664 17.4876 9.1664C16.9988 9.1664 16.5372 9.3024 16.157 9.5472C15.7497 9.3024 15.2881 9.1664 14.7993 9.1664ZM3.66588 9.7648C3.25856 9.7648 2.9327 10.064 2.9327 10.472C2.9327 10.88 3.23141 11.2064 3.63872 11.2064H3.66588H8.68949C9.09681 11.2064 9.42267 10.9072 9.42267 10.4992C9.42267 10.0912 9.12397 9.7648 8.71665 9.7648H8.68949H3.66588ZM14.7993 10.608C14.9079 10.608 15.0165 10.6352 15.1251 10.6624C15.1251 10.6896 15.1251 10.6896 15.098 10.7168C15.0708 10.8256 15.0165 10.9616 14.9894 11.0976C14.9894 11.152 14.9622 11.1792 14.9622 11.2336C14.9351 11.424 14.9079 11.5872 14.9079 11.7776C14.9079 11.968 14.9351 12.1584 14.9622 12.3216C14.9622 12.376 14.9894 12.4032 14.9894 12.4576C15.0165 12.5936 15.0708 12.7024 15.1251 12.8384C15.1251 12.8656 15.1251 12.8656 15.1523 12.8928C15.0165 12.8928 14.9079 12.92 14.7993 12.92C14.1476 12.92 13.6316 12.4032 13.6316 11.7504C13.6588 11.1248 14.1476 10.608 14.7993 10.608ZM17.4876 10.608C18.1393 10.608 18.6553 11.1248 18.6553 11.7776C18.6553 12.4304 18.1393 12.9472 17.4876 12.9472C17.1889 12.9472 16.9174 12.8384 16.7001 12.648L16.673 12.6208C16.51 12.4576 16.4014 12.2672 16.3743 12.0496C16.32 11.9136 16.32 11.832 16.32 11.7776C16.32 11.4784 16.4286 11.1792 16.6458 10.9616L16.673 10.9344C16.8902 10.7168 17.1617 10.608 17.4876 10.608ZM3.58442 11.9408C3.1771 11.968 2.87839 12.2944 2.90555 12.7024C2.9327 13.0832 3.25856 13.4096 3.66588 13.3824H5.8111C6.21842 13.3824 6.51712 13.056 6.51712 12.6752C6.51712 12.2944 6.19126 11.9408 5.78394 11.9408H3.66588C3.63872 11.9408 3.61157 11.9408 3.58442 11.9408Z" fill="white"/>
</svg>
