<svg width="28" height="24" viewBox="0 0 28 24" fill="none" xmlns="http://www.w3.org/2000/svg">
<path opacity="0.12" d="M24.2578 2.5C25.4766 3.56641 26.2891 4.83594 26.7461 6.25781C27.1016 7.57812 27.1016 8.94922 26.7461 10.3203C26.3398 11.6914 25.7305 12.8594 24.8164 13.7734L15.9297 22.8125C15.3711 23.3711 14.7109 23.625 14 23.625C13.2383 23.625 12.5781 23.3711 12.0703 22.8125L3.18359 13.7734C2.26953 12.8594 1.60938 11.6914 1.25391 10.3203C0.847656 8.94922 0.898438 7.57812 1.30469 6.25781C1.71094 4.83594 2.52344 3.56641 3.74219 2.5C4.65625 1.6875 5.77344 1.17969 7.04297 0.976562C8.26172 0.773438 9.53125 0.875 10.75 1.28125C11.9688 1.6875 13.0859 2.34766 14 3.26172C14.9141 2.34766 15.9805 1.6875 17.1992 1.28125C18.418 0.875 19.6875 0.773438 20.957 0.976562C22.1758 1.17969 23.293 1.6875 24.2578 2.5ZM23.0898 12.0469C23.6992 11.4375 24.1055 10.625 24.3594 9.71094C24.6133 8.79688 24.6133 7.83203 24.3594 6.91797C24.0547 5.95312 23.4961 5.08984 22.6836 4.37891C21.668 3.56641 20.5 3.21094 19.1797 3.3125C17.8594 3.41406 16.6914 3.97266 15.7773 4.9375L14 6.71484L12.2227 4.9375C11.2578 3.97266 10.0898 3.41406 8.76953 3.3125C7.44922 3.21094 6.28125 3.56641 5.31641 4.37891C4.45312 5.08984 3.89453 5.95312 3.64062 6.91797C3.33594 7.83203 3.33594 8.79688 3.58984 9.71094C3.84375 10.625 4.30078 11.4375 4.91016 12.0469L13.8477 21.0859C13.9492 21.2383 14.0508 21.2383 14.1523 21.0859L23.0898 12.0469Z" fill="black"/>
</svg>
