<svg xmlns="http://www.w3.org/2000/svg" viewBox="0 0 24 20"><defs><style>.cls-1{fill:#b98254;}</style></defs><g id="Camada_2" data-name="Camada 2"><g id="Camada_1-2" data-name="Camada 1"><path class="cls-1" d="M23.71,8.29l-3-3A1,1,0,0,0,20,5H17V1a1,1,0,0,0-1-1H1A1,1,0,0,0,0,1V14a1,1,0,0,0,1,1H2.35A3.45,3.45,0,0,0,2,16.5a3.5,3.5,0,0,0,7,0A3.45,3.45,0,0,0,8.65,15h6.7A3.45,3.45,0,0,0,15,16.5a3.5,3.5,0,0,0,7,0,3.45,3.45,0,0,0-.35-1.5H23a1,1,0,0,0,1-1V9A1,1,0,0,0,23.71,8.29ZM2,2H15V13H2ZM7,16.5A1.5,1.5,0,1,1,5.5,15,1.5,1.5,0,0,1,7,16.5Zm13,0A1.5,1.5,0,1,1,18.5,15,1.5,1.5,0,0,1,20,16.5ZM22,13H17V7h2.59L22,9.41Z"/></g></g></svg>