<?xml version="1.0" encoding="utf-8"?>
<!-- Generator: Adobe Illustrator 24.2.0, SVG Export Plug-In . SVG Version: 6.00 Build 0)  -->
<svg version="1.1" id="Camada_1" xmlns="http://www.w3.org/2000/svg" xmlns:xlink="http://www.w3.org/1999/xlink" x="0px" y="0px"
	 viewBox="0 0 20 22" style="enable-background:new 0 0 20 22;" xml:space="preserve">
<style type="text/css">
	.st0{fill:#050505;}
</style>
<g>
	<g>
		<path class="st0" d="M19,21.5c-0.3,0-0.5-0.2-0.5-0.5v-2.2c0-1.1-0.4-2-1.2-2.8c-0.8-0.7-1.8-1.2-2.8-1.2h-9
			c-1.1,0-2.1,0.4-2.8,1.2c-0.8,0.7-1.2,1.7-1.2,2.8V21c0,0.3-0.2,0.5-0.5,0.5S0.5,21.3,0.5,21v-2.2c0-1.3,0.5-2.6,1.5-3.5
			c0.9-0.9,2.2-1.4,3.5-1.4h9c1.3,0,2.6,0.5,3.5,1.4c0.9,0.9,1.5,2.2,1.5,3.5V21C19.5,21.3,19.3,21.5,19,21.5z"/>
	</g>
	<g>
		<path class="st0" d="M10,10.4c-2.8,0-5-2.2-5-4.9s2.2-4.9,5-4.9s5,2.2,5,4.9S12.8,10.4,10,10.4z M10,1.5c-2.2,0-4,1.8-4,3.9
			s1.8,3.9,4,3.9s4-1.8,4-3.9S12.2,1.5,10,1.5z"/>
	</g>
</g>
</svg>
