<svg viewBox="0 0 20 20"><path d="M19.5 4.2s-.1-.1 0 0c0-.1-.1-.1-.1-.1l-3-3.8c-.1-.1-.2-.2-.4-.2H4c-.2 0-.3.1-.4.2L.6 4v13.6c0 .6.3 1.2.7 1.7.5.4 1.1.7 1.8.7h14c.7 0 1.3-.2 1.8-.7.5-.4.7-1.1.7-1.7V4.4c-.1-.1-.1-.2-.1-.2zM4.2 1.1h11.5L18 3.9H2l2.2-2.8zm13.9 17.4c-.3.3-.7.4-1.1.4H3c-.4 0-.8-.2-1.1-.4-.3-.3-.4-.6-.4-1V4.9h17v12.7c0 .3-.2.6-.4.9z"/><path d="M14 7.6c-.3 0-.5.2-.5.5 0 .9-.4 1.7-1 2.3-1.3 1.2-3.7 1.2-5 0-.7-.6-1-1.4-1-2.3 0-.3-.2-.5-.5-.5s-.5.2-.5.5c0 1.1.5 2.2 1.3 3 .8.8 2 1.2 3.2 1.2 1.2 0 2.3-.4 3.2-1.2.8-.8 1.3-1.9 1.3-3 0-.3-.2-.5-.5-.5zM223 215l-3 3.8V232c0 .5.2 1 .6 1.3.4.4.9.6 1.4.6h14c.5 0 1-.2 1.4-.6.4-.4.6-.8.6-1.3v-13.2l-3-3.8h-12zm-3 3.8h18"/><path d="M233 222.6c0 1-.4 2-1.2 2.7-.8.7-1.8 1.1-2.8 1.1-1.1 0-2.1-.4-2.8-1.1-.8-.7-1.2-1.7-1.2-2.7"/></svg>