<svg width="28" height="24"><path opacity=".12" d="M24.258 2.5a8.292 8.292 0 012.488 3.758 7.87 7.87 0 010 4.062c-.406 1.371-1.015 2.54-1.93 3.453l-8.886 9.04c-.559.558-1.22.812-1.93.812-.762 0-1.422-.254-1.93-.813l-8.886-9.039c-.914-.914-1.575-2.082-1.93-3.453-.406-1.37-.356-2.742.05-4.062.407-1.422 1.22-2.692 2.438-3.758.914-.813 2.031-1.32 3.301-1.523a7.706 7.706 0 013.707.304A8.264 8.264 0 0114 3.261a8.081 8.081 0 013.2-1.98 7.863 7.863 0 013.757-.304 6.801 6.801 0 013.3 1.523zm-1.168 9.547c.61-.61 1.015-1.422 1.27-2.336a5.216 5.216 0 000-2.793 5.577 5.577 0 00-1.676-2.54c-1.016-.812-2.184-1.167-3.504-1.066a5.146 5.146 0 00-3.403 1.626L14 6.715l-1.777-1.777c-.965-.965-2.133-1.524-3.453-1.625-1.32-.102-2.489.253-3.454 1.066-.863.71-1.421 1.574-1.675 2.539a4.762 4.762 0 00-.051 2.793c.254.914.71 1.726 1.32 2.336l8.938 9.039c.101.152.203.152.304 0l8.938-9.04z"/></svg>