<svg class="svg-sprites" id="skin-sprite" xmlns="http://www.w3.org/2000/svg" xmlns:xlink="http://www.w3.org/1999/xlink">
    <symbol viewBox="0 0 23 17" id="z-card"><path d="M2.498 0C1.14 0 0 1.142 0 2.502V14.47a2.511 2.511 0 002.498 2.503h17.977a2.511 2.511 0 002.498-2.503V2.502C23 1.142 21.86 0 20.502 0H2.498zm0 1.442h17.977c.597 0 1.059.462 1.059 1.06v1.061H1.439v-1.06c0-.599.462-1.061 1.06-1.061zM1.44 5.005h20.122v.897H1.439v-.897zm0 2.339h20.122v7.154c0 .598-.462 1.06-1.06 1.06H2.499a1.044 1.044 0 01-1.059-1.06V7.344zM14.8 9.166c-1.412 0-2.58 1.17-2.58 2.612a2.598 2.598 0 002.58 2.584c.49 0 .924-.136 1.33-.381.381.245.843.38 1.331.38a2.598 2.598 0 002.58-2.583c0-1.415-1.14-2.612-2.552-2.612-.49 0-.95.136-1.331.381a2.62 2.62 0 00-1.358-.38zm-11.133.599c-.407 0-.733.299-.733.707s.298.734.706.734h5.05c.408 0 .734-.299.734-.707s-.299-.734-.706-.734H3.666zm11.133.843c.109 0 .218.027.326.054 0 .028 0 .028-.027.055-.027.109-.082.245-.109.38 0 .055-.027.082-.027.137-.027.19-.054.353-.054.544 0 .19.027.38.054.544 0 .054.027.081.027.136.027.136.082.244.136.38 0 .028 0 .028.027.055-.135 0-.244.027-.353.027a1.16 1.16 0 01-1.167-1.17c.027-.625.516-1.142 1.167-1.142zm2.689 0a1.16 1.16 0 011.167 1.17 1.16 1.16 0 01-1.167 1.17c-.3 0-.57-.11-.788-.3l-.027-.027a.978.978 0 01-.299-.571c-.054-.136-.054-.218-.054-.272 0-.3.109-.599.326-.816l.027-.028c.217-.217.489-.326.815-.326zM3.584 11.941a.709.709 0 00-.678.761c.027.381.353.708.76.68H5.81a.702.702 0 00.706-.707.749.749 0 00-.733-.734H3.584z"/></symbol>
    <symbol viewBox="0 0 20 20" id="z-cart"><path d="M19.5 4.2s-.1-.1 0 0c0-.1-.1-.1-.1-.1l-3-3.8c-.1-.1-.2-.2-.4-.2H4c-.2 0-.3.1-.4.2L.6 4v13.6c0 .6.3 1.2.7 1.7.5.4 1.1.7 1.8.7h14c.7 0 1.3-.2 1.8-.7.5-.4.7-1.1.7-1.7V4.4c-.1-.1-.1-.2-.1-.2zM4.2 1.1h11.5L18 3.9H2l2.2-2.8zm13.9 17.4c-.3.3-.7.4-1.1.4H3c-.4 0-.8-.2-1.1-.4-.3-.3-.4-.6-.4-1V4.9h17v12.7c0 .3-.2.6-.4.9z"/><path d="M14 7.6c-.3 0-.5.2-.5.5 0 .9-.4 1.7-1 2.3-1.3 1.2-3.7 1.2-5 0-.7-.6-1-1.4-1-2.3 0-.3-.2-.5-.5-.5s-.5.2-.5.5c0 1.1.5 2.2 1.3 3 .8.8 2 1.2 3.2 1.2 1.2 0 2.3-.4 3.2-1.2.8-.8 1.3-1.9 1.3-3 0-.3-.2-.5-.5-.5zM223 215l-3 3.8V232c0 .5.2 1 .6 1.3.4.4.9.6 1.4.6h14c.5 0 1-.2 1.4-.6.4-.4.6-.8.6-1.3v-13.2l-3-3.8h-12zm-3 3.8h18"/><path d="M233 222.6c0 1-.4 2-1.2 2.7-.8.7-1.8 1.1-2.8 1.1-1.1 0-2.1-.4-2.8-1.1-.8-.7-1.2-1.7-1.2-2.7"/></symbol>
    <symbol viewBox="0 0 28 24" id="z-heart"><path opacity=".12" d="M24.258 2.5a8.292 8.292 0 012.488 3.758 7.87 7.87 0 010 4.062c-.406 1.371-1.015 2.54-1.93 3.453l-8.886 9.04c-.559.558-1.22.812-1.93.812-.762 0-1.422-.254-1.93-.813l-8.886-9.039c-.914-.914-1.575-2.082-1.93-3.453-.406-1.37-.356-2.742.05-4.062.407-1.422 1.22-2.692 2.438-3.758.914-.813 2.031-1.32 3.301-1.523a7.706 7.706 0 013.707.304A8.264 8.264 0 0114 3.261a8.081 8.081 0 013.2-1.98 7.863 7.863 0 013.757-.304 6.801 6.801 0 013.3 1.523zm-1.168 9.547c.61-.61 1.015-1.422 1.27-2.336a5.216 5.216 0 000-2.793 5.577 5.577 0 00-1.676-2.54c-1.016-.812-2.184-1.167-3.504-1.066a5.146 5.146 0 00-3.403 1.626L14 6.715l-1.777-1.777c-.965-.965-2.133-1.524-3.453-1.625-1.32-.102-2.489.253-3.454 1.066-.863.71-1.421 1.574-1.675 2.539a4.762 4.762 0 00-.051 2.793c.254.914.71 1.726 1.32 2.336l8.938 9.039c.101.152.203.152.304 0l8.938-9.04z"/></symbol>
    <symbol viewBox="0 0 12 20" id="z-next"><path opacity=".5" d="M11.764 10.53c.315-.312.315-.748 0-1.06L2.504.234c-.252-.312-.756-.312-1.07 0L.235 1.482c-.315.312-.315.749 0 1.06l7.433 7.49-7.433 7.425c-.315.312-.315.811 0 1.06l1.197 1.249c.315.312.819.312 1.07 0l9.26-9.236z"/></symbol>
    <symbol viewBox="0 0 12 20" id="z-prev"><path opacity=".5" d="M.236 9.47c-.315.312-.315.748 0 1.06l9.26 9.236c.252.312.756.312 1.07 0l1.198-1.248c.315-.312.315-.749 0-1.06L4.33 9.967l7.433-7.425c.315-.312.315-.811 0-1.06L10.567.233c-.315-.312-.819-.312-1.07 0L.236 9.47z"/></symbol>
    <symbol viewBox="0 0 25 25" id="z-search"><path d="M24.85 24.15l-5.69-5.69a.38.38 0 00-.13-.09 11 11 0 10-.66.66.38.38 0 00.09.13l5.69 5.69a.48.48 0 00.7 0 .48.48 0 000-.7zM11 20.93a10 10 0 1110-10 10 10 0 01-10 10z"/></symbol>
    <symbol viewBox="0 0 20 22" id="z-user"><path d="M19 21.5c-.3 0-.5-.2-.5-.5v-2.2c0-1.1-.4-2-1.2-2.8-.8-.7-1.8-1.2-2.8-1.2h-9c-1.1 0-2.1.4-2.8 1.2-.8.7-1.2 1.7-1.2 2.8V21c0 .3-.2.5-.5.5s-.5-.2-.5-.5v-2.2c0-1.3.5-2.6 1.5-3.5.9-.9 2.2-1.4 3.5-1.4h9c1.3 0 2.6.5 3.5 1.4.9.9 1.5 2.2 1.5 3.5V21c0 .3-.2.5-.5.5zm-9-11.1c-2.8 0-5-2.2-5-4.9S7.2.6 10 .6s5 2.2 5 4.9-2.2 4.9-5 4.9zm0-8.9c-2.2 0-4 1.8-4 3.9s1.8 3.9 4 3.9 4-1.8 4-3.9-1.8-3.9-4-3.9z"/></symbol>
    <symbol viewBox="0 0 24 20" id="z-truck"><path d="M23.71 8.29l-3-3A1 1 0 0020 5h-3V1a1 1 0 00-1-1H1a1 1 0 00-1 1v13a1 1 0 001 1h1.35A3.45 3.45 0 002 16.5a3.5 3.5 0 007 0 3.45 3.45 0 00-.35-1.5h6.7a3.45 3.45 0 00-.35 1.5 3.5 3.5 0 007 0 3.45 3.45 0 00-.35-1.5H23a1 1 0 001-1V9a1 1 0 00-.29-.71zM2 2h13v11H2zm5 14.5A1.5 1.5 0 115.5 15 1.5 1.5 0 017 16.5zm13 0a1.5 1.5 0 11-1.5-1.5 1.5 1.5 0 011.5 1.5zm2-3.5h-5V7h2.59L22 9.41z"/></symbol>
</svg>